<svg version="1.1" baseProfile="full" xmlns="http://www.w3.org/2000/svg" preserveAspectRatio="xMidYMid slice" width="100%" height="100%" viewBox="0 0 1000 1000"><rect width="100%" height="100%" fill="#F44336" opacity="1"></rect><defs><circle opacity="1" id="points0" cx="0" cy="0" r="95" fill="#8BC34A"></circle><circle opacity="1" id="points1" cx="0" cy="0" r="95" fill="#00BCD4"></circle><circle opacity="1" id="points2" cx="0" cy="0" r="95" fill="#607D8B"></circle><circle opacity="1" id="points3" cx="0" cy="0" r="95" fill="#4CAF50"></circle><circle opacity="1" id="points4" cx="0" cy="0" r="40" fill="#009688"></circle><circle opacity="1" id="points5" cx="0" cy="0" r="40" fill="#CDDC39"></circle><circle opacity="1" id="points6" cx="0" cy="0" r="40" fill="#4CAF50"></circle><circle opacity="1" id="points7" cx="0" cy="0" r="60" fill="#00BCD4"></circle><circle opacity="1" id="points8" cx="0" cy="0" r="60" fill="#3F51B5"></circle><circle opacity="1" id="points9" cx="0" cy="0" r="60" fill="#009688"></circle></defs><polygon points="711.0551461196137,422.02099451500726 422.02099451500726,288.94485388038635 288.94485388038635,711.0551461196137 " fill="#F44336" stroke="#FF9800" stroke-width="60" stroke-opacity="1" id="body" fill-opacity="1"></polygon><path d=" M 711.0551461196137,577.9790054849927 L 288.94485388038635,422.02099451500726  M 577.9790054849927,288.94485388038635 L 422.02099451500726,711.0551461196137 " stroke="#795548" stroke-width="95" opacity="1" id="two-lines-center-cross"></path><use x="711.0551461196137" y="577.9790054849927" href="#points0"></use><use x="288.94485388038635" y="422.02099451500726" href="#points1"></use><use x="577.9790054849927" y="288.94485388038635" href="#points2"></use><use x="422.02099451500726" y="711.0551461196137" href="#points3"></use><use x="500" y="500" href="#points4"></use><use x="711.0551461196137" y="577.9790054849927" href="#points5"></use><use x="288.94485388038635" y="422.02099451500726" href="#points6"></use><use x="577.9790054849927" y="288.94485388038635" href="#points7"></use><use x="422.02099451500726" y="711.0551461196137" href="#points8"></use><use x="500" y="500" href="#points9"></use></svg>
