<svg version="1.1" baseProfile="full" xmlns="http://www.w3.org/2000/svg" preserveAspectRatio="xMidYMid slice" width="100%" height="100%" viewBox="0 0 1000 1000"><rect width="100%" height="100%" fill="#17212B" opacity="1"></rect><defs><circle opacity="1" id="joint-femur" cx="0" cy="0" r="30" fill="#FF5722"></circle><circle opacity="1" id="joint-tibia" cx="0" cy="0" r="30" fill="#FF5722"></circle><circle opacity="1" id="center" cx="0" cy="0" r="45" fill="#32ff7e"></circle><circle opacity="1" id="head" cx="0" cy="0" r="45" fill="#e84393"></circle><circle opacity="1" id="body-vertices" cx="0" cy="0" r="30" fill="#e84393"></circle></defs><polygon points="272,393 270,591 401,736 729,607 730,409 599,264 " fill="#0e2845" stroke="#0e2845" stroke-width="0" stroke-opacity="0" id="blue-hexagon" fill-opacity="1"></polygon><polygon points="410,385 355,520 410,615 590,615 645,520 590,385 " fill="#e84393" stroke="#e84393" stroke-width="25" stroke-opacity="1" id="body" fill-opacity="0.3"></polygon><path d=" M 410,385 L 231,276  M 355,520 L 145,500  M 410,615 L 231,724  M 590,615 L 769,724  M 645,520 L 835,500  M 590,385 L 769,276 " stroke="#FF5722" stroke-width="25" opacity="0.8" id="six-legs"></path><ellipse cx="900" cy="650" rx="25" ry="45" fill="#32ff7e" stroke="#32ff7e" stroke-width="5" stroke-opacity="1" id="sampleEllipse" fill-opacity="0.5" transform="rotate(45, 900, 650)"></ellipse><ellipse cx="860" cy="650" rx="25" ry="45" fill="#32ff7e" stroke="#32ff7e" stroke-width="5" stroke-opacity="1" id="sampleEllipse2" fill-opacity="0.5" transform="rotate(-45, 860, 650)"></ellipse><use x="334" y="339" href="#joint-femur"></use><use x="265" y="500" href="#joint-femur"></use><use x="334" y="661" href="#joint-femur"></use><use x="666" y="661" href="#joint-femur"></use><use x="735" y="500" href="#joint-femur"></use><use x="666" y="339" href="#joint-femur"></use><use x="231" y="276" href="#joint-tibia"></use><use x="145" y="500" href="#joint-tibia"></use><use x="231" y="724" href="#joint-tibia"></use><use x="769" y="724" href="#joint-tibia"></use><use x="835" y="500" href="#joint-tibia"></use><use x="769" y="276" href="#joint-tibia"></use><use x="500" y="520" href="#center"></use><use x="500" y="620" href="#head"></use><use x="410" y="385" href="#body-vertices"></use><use x="355" y="520" href="#body-vertices"></use><use x="410" y="615" href="#body-vertices"></use><use x="590" y="615" href="#body-vertices"></use><use x="645" y="520" href="#body-vertices"></use><use x="590" y="385" href="#body-vertices"></use></svg>
