<svg version="1.1" baseProfile="full" xmlns="http://www.w3.org/2000/svg" preserveAspectRatio="xMidYMid slice" width="100%" height="100%" viewBox="0 0 1000 2000"><rect width="100%" height="100%" fill="#2f3542" opacity="1"></rect><defs></defs><path d=" M 522.9287636807866,1251.2533037020041 L 209.86326706024101,832.6062415883036  M 508.1355532210276,1256.1589705366039 L 218.22772429759766,819.8678769206452  M 492.69333343418305,1259.9421776459985 L 227.16804609541884,807.649169094506  M 476.70331633235395,1262.5308004765682 L 236.65041163725886,795.978571811731  M 460.27409758219017,1263.8626434474322 L 246.63948972086752,784.8822902829979  M 443.520649196848,1263.8861633135903 L 257.09858959577747,774.3841968582302  M 426.563243206022,1262.561089178148 L 267.9898166690639,764.5057568107095  M 409.52631693345256,1259.8589326857173 L 279.27423239503656,755.2659645607781  M 392.5372911086481,1255.763383021173 L 290.9120176476127,746.6812905791355  M 375.72535252499273,1250.270582484595 L 302.86263886075784,738.7656391625542  M 359.22021332483564,1243.3892796025657 L 315.0850162110596,731.5303172268008  M 343.1508592402057,1235.140857956762 L 327.53769310977407,724.9840142133108  M 327.6442992428545,1225.5592401502017 L 340.17900626666324,719.1327931572284  M 312.82432905743264,1214.6906675774947 L 352.9672555878764,713.9800929153508  M 298.81032086845073,1202.5933579057685 L 365.86087317145893,709.526741503723  M 285.71605130370796,1189.3370433943464 L 378.8185906705486,705.7709804460267  M 273.64857940994216,1175.002394372904 L 391.7996043022433,702.708499985458  M 262.7071858507765,1159.680333346405 L 404.7637367927332,700.3324849659261  M 252.98238396023478,1143.4712462900507 L 417.67159556376765,698.6336711411857  M 244.55501258112682,1126.4840987277687 L 430.4847264841981,697.6004116258345  M 237.49541981469594,1108.835465142165 L 443.1657625307436,697.2187531575021  M 231.86274591334194,1090.6484811345001 L 455.67856672679324,697.472521797346  M 227.7043125713268,1072.0517285297142 L 467.98836875421165,698.343417655047  M 225.05512481867555,1053.1780642970684 L 480.06189466257734,699.8111181854397  M 223.9374906111853,1034.1634047248149 L 491.86748913254223,701.8533895673198  M 224.36076204650487,1015.145476740716 L 503.3752297835573,704.4462056398693  M 226.32120093291354,996.2625486064275 L 514.5570330533262,707.5638738404564  M 229.80197020720482,977.6521524276995 L 525.3867512143336,711.1791675570211  M 234.7732514517558,959.4498110125304 L 535.8402601335273,715.263464282024  M 241.19248751212177,941.7877815757057 L 545.895537423072,719.7868889296117  M 249.00474797692124,924.7938286286336 L 555.5327306738664,724.7184616571159  M 258.1432140642522,908.5900381128532 L 564.7342155081667,730.0262495125716  M 268.52977827501775,893.2916844335056 L 573.4846432340353,735.6775212152672  M 280.0757530361106,879.0061615319025 L 581.7709779308625,741.6389043631691  M 292.68268147503125,865.831988507957 L 589.5825228430742,747.8765443526878  M 306.2432424556,853.8578995700504 L 596.9109360072318,754.3562642893258  M 320.6422410688346,843.1620272598097 L 603.7502350859816,761.0437251658086  M 335.75767492612096,833.8111869797149 L 610.0967914308108,767.9045855842066  M 351.4618658502051,825.8602698521968 L 615.9493134439153,774.9046603022376  M 367.62264591064286,819.3517498694828 L 621.3088193572484,782.0100768913193  M 384.1045862127227,814.3153101648902 L 626.1785995941938,789.1874298032499  M 400.7702564244722,810.7675920594259 L 630.5641689258057,796.4039311564145  M 417.48150272293344,808.7120693246875 L 634.4732086790837,803.6275575678692  M 434.10073165896574,808.1390488653897 L 637.9154992989609,810.8271923777216  M 450.492187382145,809.0257977758689 L 640.9028436087483,817.972762633621  M 466.52320973513383,811.3367954757903 L 643.4489811547193,825.0353702288971  M 482.0654609177366,815.0241083947566 L 645.5694940605522,831.9874166148471  M 496.99610873465326,820.0278834645237 L 647.2817048543344,838.8027205386038  M 511.1989548737315,826.2769555047196 L 648.6045667667609,845.4566282900118  M 524.5654972083487,833.6895624630258 L 649.558547031843,851.9261159765445  M 536.9959157749968,842.1741614074803 L 650.1655037527723,858.1898833817954  M 548.3999728357347,851.6303371745385 L 650.4485569230116,864.2284390025669  M 558.697818290152,861.9497946643548 L 650.4319542187984,870.0241759001593  M 567.8206926425581,873.0174249519807 L 650.1409322017178,875.5614380438691  M 575.7115207482121,884.71243465772 L 649.6015735894761,880.8265768687535  M 582.3253906483424,896.9095274011729 L 648.8406612705268,885.8079978144873  M 587.6299129448934,909.4801256541207 L 647.8855297509635,890.4961966583732  M 591.6054573527887,922.2936209162111 L 646.7639147337823,894.8837855023244  M 594.2452642869594,935.2186398652675 L 645.5038015370832,898.9655083211543  M 595.5554305817482,948.1243139853639 L 644.1332730628732,902.7382460272081  M 595.5547696893402,960.8815401516999 L 642.6803580284115,906.2010110544726  M 594.2745479486275,973.3642197513882 L 641.1728801707294,909.354931513232  M 591.7580997445816,985.4504641431058 L 639.6383091285114,912.2032250137836  M 588.0603255780101,997.0237546042603 L 638.1036136981654,914.751162305312  M 583.2470782250258,1007.9740453766229 L 636.5951181480718,917.0060209220936  M 577.3944432725162,1018.1987989988239 L 635.1383622610832,918.9770290750531  M 570.5879213600707,1027.6039437968525 L 633.757965757012,920.6753000711528  M 562.9215204291141,1036.1047441887265 L 632.4774977262562,922.1137575860894  M 554.4967671670685,1043.6265753365883 L 631.3193516823155,923.3070521578204  M 545.4216476297339,1050.1055946400772 L 630.3046268141567,924.2714693080002  M 535.8094877196537,1055.4893036011515 L 629.4530159910001,925.0248297369685  M 525.7777847869178,1059.73699468905 L 628.7827010400836,925.5863820736179  M 515.4470020939096,1062.8200789872465 L 628.3102557847924,925.9766886959399  M 504.9393382436245,1064.7222915976931 L 628.0505572938673,926.2175051687774  M 494.3774839082304,1065.439773001378 L 628.0167057551241,926.3316538754269  M 483.88337830788754,1064.9810258148411 L 628.2199533465916,926.3428924451683  M 473.57697787929186,1063.366747628108 L 628.6696424368968,926.2757776032818  M 463.5750494382613,1060.6295418474065 L 629.3731534033831,926.1555250904961  M 453.98999988241246,1056.8135096846063 L 630.3358623123027,926.0078663171247  M 444.9287541022155,1051.9737276211044 L 631.5611086597701,925.8589024315827  M 436.4916922731468,1046.175615816499 L 633.0501733260519,925.7349564955341  M 428.7716570961176,1039.49420401897 L 634.8022668484898,925.6624244656767  M 421.85304084120514,1032.013302555237 L 636.8145280710564,925.6676256885385  M 415.8109612397478,1023.8245869222694 L 639.0820331806107,925.7766536166839  M 410.71053437016724,1015.0266053614447 L 641.5978150921948,926.0152274533368  M 406.60625170095534,1005.7237195601436 L 644.3528930979793,926.4085454293951  M 403.541467402507,996.0249892878911 L 647.3363126472939,926.9811404083632  M 401.54800092564807,986.0430123279937 L 650.5351950783257,927.756738505161  M 400.6458586823021,975.8927315048836 L 653.934797076435,928.7581213906446  M 400.8430774627377,965.6902209289148 L 657.5185795888252,930.0069929375458  M 402.135690997354,955.5514637792344 L 661.2682858820949,931.5238508433091  M 404.507819830524,945.5911340217195 L 665.1640283863916,933.3278638437506  M 407.93188343280303,935.921394410023 L 669.184383929859,935.4367551050668  M 412.3689322471999,926.6507229455925 L 673.3064969275379,937.8666923549913  M 417.7690961589102,917.8827796780254 L 677.506190052606,940.632185282379  M 424.07214470639724,909.7153253133592 L 681.7580818824633,943.7459907022726  M 431.20815322834494,902.2392025694853 L 686.0357109801207,947.2190259480695  M 439.0982680755957,895.5373905795318 L 690.3116658409865,951.0602909151338  M 447.6555630213093,889.6841419025745 L 694.5577201076055,955.2767991411242  M 456.785978086024,884.7442108637972 L 698.7449724303767,959.8735182671508 " stroke="#ff4757" stroke-width="2" opacity="0.75" id="animating-lines-with-patterns"></path></svg>
